<?xml version="1.0" standalone="no"?>
<!DOCTYPE svg PUBLIC "-//W3C//DTD SVG 20010904//EN"
 "http://www.w3.org/TR/2001/REC-SVG-20010904/DTD/svg10.dtd">
<svg version="1.0" xmlns="http://www.w3.org/2000/svg"
 width="8000.000000pt" height="5334.000000pt" viewBox="0 0 8000.000000 5334.000000"
 preserveAspectRatio="xMidYMid meet">
<metadata>
Created by potrace 1.16, written by Peter Selinger 2001-2019
</metadata>
<g transform="translate(0.000000,5334.000000) scale(0.100000,-0.100000)"
fill="#000000" stroke="none">
<path d="M46345 41964 c-785 -60 -1372 -179 -2019 -409 -443 -157 -949 -405
-1375 -672 -739 -464 -1448 -1096 -2081 -1858 -772 -928 -1497 -2137 -2100
-3502 -35 -79 -66 -143 -69 -143 -3 0 -19 24 -35 53 -104 186 -414 667 -611
948 -1608 2289 -3809 4051 -5989 4795 -1262 431 -2480 531 -3656 303 -1067
-208 -2077 -692 -3010 -1443 -283 -228 -633 -558 -864 -816 -674 -751 -1141
-1600 -1395 -2535 -99 -366 -159 -716 -201 -1170 -18 -187 -24 -751 -11 -975
68 -1171 367 -2383 922 -3732 485 -1182 1228 -2604 2017 -3863 683 -1090 1585
-2310 2491 -3370 772 -902 1758 -1918 2641 -2721 1419 -1291 2982 -2470 4655
-3514 921 -575 1798 -1068 2805 -1578 234 -118 426 -218 428 -222 7 -18 -1098
-555 -1604 -780 -1972 -876 -4041 -1512 -6194 -1904 -1270 -231 -2403 -356
-3795 -418 -367 -16 -1644 -16 -2005 0 -1557 70 -2876 234 -4165 518 -3003
661 -5406 1960 -7000 3784 -771 882 -1346 1831 -1721 2841 -401 1079 -553
2209 -438 3244 89 800 365 1571 757 2115 167 232 413 497 597 644 387 308 859
512 1381 598 184 30 615 33 784 5 395 -66 736 -208 1010 -421 121 -95 281
-267 364 -391 450 -674 423 -1675 -64 -2300 -85 -109 -226 -241 -333 -312
-131 -86 -132 -87 -67 -52 341 180 621 555 745 997 150 532 101 1093 -134
1560 -50 100 -164 266 -245 359 -207 238 -537 451 -878 567 -270 92 -504 129
-818 130 -235 0 -363 -12 -575 -54 -834 -167 -1495 -622 -1998 -1376 -416
-624 -667 -1394 -754 -2309 -20 -217 -17 -951 5 -1180 150 -1542 731 -2996
1735 -4345 847 -1138 1895 -2063 3222 -2845 1783 -1050 3933 -1730 6550 -2069
2419 -314 5021 -278 7493 105 3004 465 5921 1425 8610 2836 l239 125 56 -25
c32 -13 174 -77 317 -142 3165 -1425 6705 -2481 10340 -3084 3903 -648 7202
-547 9955 304 1466 453 2655 1048 3789 1893 2011 1500 3447 3567 3981 5732
156 634 230 1239 230 1885 0 845 -113 1537 -347 2130 -378 957 -1037 1541
-1918 1700 -122 22 -415 31 -540 16 -545 -64 -949 -328 -1165 -761 -52 -104
-111 -283 -136 -410 -27 -143 -25 -439 4 -577 24 -111 70 -250 109 -328 63
-124 185 -278 287 -358 22 -18 0 9 -49 58 -243 243 -357 561 -342 950 10 238
64 445 169 646 203 389 584 638 1072 699 155 20 440 8 596 -25 344 -72 677
-228 950 -445 188 -150 410 -406 555 -641 267 -431 454 -1008 534 -1649 40
-314 46 -435 46 -890 -1 -453 -7 -574 -51 -920 -200 -1592 -921 -3194 -2063
-4584 -301 -367 -833 -921 -1171 -1221 -791 -700 -1625 -1267 -2530 -1719
-854 -426 -1844 -774 -2900 -1020 -2241 -521 -4746 -580 -7670 -180 -1658 227
-3709 662 -5535 1175 -2007 564 -4007 1288 -5763 2087 l-154 70 99 57 c1432
836 2747 1772 4263 3034 2023 1685 3698 3481 5022 5388 1737 2501 2924 5229
3692 8483 330 1398 423 2715 275 3900 -221 1774 -949 3149 -2174 4105 -252
197 -661 453 -975 610 -845 423 -1876 694 -3005 791 -178 15 -967 28 -1100 18z
m1080 -798 c1402 -128 2593 -535 3460 -1184 999 -748 1633 -1829 1890 -3225
89 -484 125 -917 125 -1492 0 -864 -93 -1627 -316 -2590 -379 -1637 -858
-3103 -1472 -4506 -968 -2214 -2271 -4228 -3952 -6109 -545 -611 -1291 -1364
-1980 -2000 -578 -533 -1326 -1169 -2025 -1721 -1217 -960 -2205 -1637 -3371
-2309 l-225 -130 -497 250 c-856 430 -1578 825 -2332 1278 -1993 1197 -3840
2592 -5510 4161 -233 219 -872 854 -1124 1116 -1200 1251 -2218 2517 -3195
3975 -911 1359 -1847 3118 -2404 4520 -704 1771 -950 3322 -741 4680 134 876
473 1681 1007 2396 577 774 1436 1488 2324 1932 1082 543 2254 723 3473 536
1029 -158 2081 -570 3126 -1223 1082 -677 2170 -1652 3075 -2756 601 -733
1125 -1527 1549 -2350 112 -216 144 -263 213 -308 74 -48 137 -67 228 -67 93
0 156 19 229 69 84 58 117 115 234 407 481 1196 974 2159 1553 3036 397 601
778 1078 1233 1541 614 626 1209 1072 1890 1416 795 402 1523 599 2495 675
131 10 870 -3 1040 -18z"/>
</g>
</svg>
