<?xml version="1.0" standalone="no"?>
<!DOCTYPE svg PUBLIC "-//W3C//DTD SVG 20010904//EN"
 "http://www.w3.org/TR/2001/REC-SVG-20010904/DTD/svg10.dtd">
<svg version="1.0" xmlns="http://www.w3.org/2000/svg"
 width="1183.000000pt" height="1080.000000pt" viewBox="0 0 1183.000000 1080.000000"
 preserveAspectRatio="xMidYMid meet">

<g transform="translate(0.000000,1080.000000) scale(0.100000,-0.100000)"
fill="#000000" stroke="none">
<path d="M6365 10766 c-199 -46 -362 -161 -443 -313 -35 -66 -62 -158 -62
-213 -1 -33 -3 -31 -43 45 -60 114 -95 162 -176 238 -118 111 -254 167 -406
167 -263 -1 -495 -165 -624 -442 -22 -45 -47 -109 -56 -142 l-17 -58 -28 48
c-75 130 -238 241 -435 296 -68 19 -105 22 -250 22 -156 0 -177 -3 -260 -28
-249 -76 -409 -226 -481 -451 -21 -64 -27 -107 -31 -217 l-6 -138 -46 35
c-295 223 -681 198 -849 -55 -60 -89 -72 -136 -82 -319 0 -2 -21 15 -46 39
-195 180 -557 130 -867 -120 -247 -198 -381 -486 -348 -748 9 -70 33 -156 66
-236 7 -16 5 -18 -11 -11 -98 41 -256 44 -354 6 -70 -27 -160 -95 -217 -163
-55 -67 -117 -192 -139 -283 -24 -97 -24 -280 0 -360 43 -144 136 -265 260
-339 l60 -36 -35 0 c-19 0 -62 -7 -94 -16 -290 -75 -413 -441 -256 -759 90
-182 244 -309 479 -395 l72 -26 -66 -13 c-260 -52 -458 -303 -472 -598 -6
-126 9 -205 53 -293 73 -145 227 -240 387 -240 26 0 48 -2 48 -4 0 -3 -16 -37
-36 -76 -87 -174 -126 -336 -126 -530 -2 -447 227 -773 629 -897 83 -25 99
-27 293 -27 225 -1 293 10 491 73 53 17 98 31 100 31 2 0 2 -38 1 -84 -6 -141
45 -272 148 -377 193 -196 498 -174 802 58 l57 43 6 -37 c60 -387 295 -604
631 -580 197 14 377 97 554 256 l68 60 26 -39 c131 -198 553 -304 929 -234
253 48 464 186 547 359 19 39 34 71 35 72 1 1 29 -24 62 -56 72 -68 190 -130
308 -162 109 -30 337 -32 440 -5 179 46 350 168 432 307 10 16 20 29 23 29 3
-1 21 -24 40 -51 46 -66 174 -185 244 -228 30 -18 84 -45 118 -60 57 -24 75
-26 193 -26 127 0 132 1 197 33 139 68 245 198 319 390 9 22 10 22 76 -29 139
-107 306 -166 498 -175 370 -19 755 161 939 440 81 122 110 201 131 357 l6 46
52 -14 c110 -28 297 -11 471 44 326 103 601 331 701 580 54 134 54 301 0 457
-14 40 -25 74 -25 77 0 2 36 3 80 1 104 -5 173 11 271 60 211 105 380 306 461
548 31 92 32 100 32 265 0 159 -2 175 -28 255 -62 189 -159 334 -335 503
l-110 105 62 38 c98 60 215 184 265 280 55 108 75 187 75 304 0 162 -52 305
-158 433 -117 142 -278 224 -478 243 l-68 6 28 18 c74 45 144 157 180 290 22
81 25 298 4 380 -24 98 -85 212 -148 276 -109 111 -233 156 -424 157 l-117 0
9 31 c5 17 9 73 9 124 0 381 -290 748 -653 827 -95 21 -279 16 -371 -9 -32 -9
-61 -15 -63 -13 -2 2 2 28 8 58 16 74 6 239 -19 309 -81 230 -257 382 -474
410 -201 25 -414 -63 -612 -253 -42 -41 -79 -70 -81 -64 -42 138 -83 211 -155
279 -93 87 -207 125 -350 115 -216 -15 -431 -152 -580 -371 l-33 -49 -18 62
c-31 117 -86 208 -179 302 -87 87 -154 129 -267 165 -68 22 -290 28 -368 10z
m369 -286 c129 -40 244 -144 319 -289 19 -36 41 -85 48 -109 l12 -43 31 53
c68 119 249 260 403 313 224 78 408 44 552 -103 67 -68 136 -183 162 -269 7
-24 15 -43 18 -43 3 0 21 15 41 34 122 118 341 249 470 282 102 26 209 16 288
-26 139 -74 240 -252 296 -525 10 -44 19 -90 22 -103 4 -20 6 -21 27 -8 12 8
58 27 102 42 101 34 245 38 340 10 200 -59 376 -216 475 -421 66 -137 84 -216
78 -352 -6 -119 -23 -179 -77 -258 -17 -25 -31 -48 -31 -50 0 -3 26 12 58 32
31 20 93 49 137 65 188 66 354 15 459 -140 66 -98 89 -174 94 -312 7 -202 -40
-332 -164 -457 -69 -70 -101 -90 -244 -151 -22 -9 -17 -11 36 -11 179 -2 391
-107 560 -275 319 -319 339 -690 46 -844 -70 -37 -109 -49 -218 -71 l-86 -16
92 -60 c111 -72 236 -200 298 -304 92 -156 134 -307 134 -486 1 -407 -263
-729 -665 -812 -70 -14 -86 -21 -81 -33 39 -102 53 -271 31 -387 -32 -167 -94
-280 -227 -413 -281 -281 -666 -330 -907 -116 -31 28 -54 43 -50 33 4 -11 12
-51 18 -90 42 -270 -126 -617 -385 -795 -89 -62 -135 -85 -228 -116 -262 -88
-565 -31 -842 159 -38 25 -69 45 -70 43 -1 -2 -10 -24 -20 -51 -47 -127 -183
-270 -324 -340 -85 -42 -86 -42 -197 -42 -109 0 -113 1 -189 38 -135 67 -257
204 -377 422 l-44 80 -7 -75 c-3 -41 -13 -95 -22 -120 -43 -116 -152 -230
-281 -291 -125 -60 -189 -74 -345 -73 -118 1 -145 4 -215 27 -152 50 -274 145
-337 261 l-32 61 -7 -40 c-43 -243 -287 -451 -609 -517 -136 -28 -313 -22
-424 16 -179 61 -283 159 -342 322 -13 36 -24 76 -24 89 0 35 -12 31 -35 -11
-10 -20 -54 -68 -96 -108 -86 -81 -229 -161 -354 -197 -98 -29 -269 -36 -358
-15 -143 34 -264 122 -337 246 -38 65 -90 211 -90 254 0 36 -11 38 -47 10
-145 -110 -434 -161 -609 -106 -184 57 -291 186 -334 403 l-11 56 -117 -23
c-300 -59 -543 -57 -747 7 -365 113 -555 436 -514 873 17 177 75 367 150 489
16 27 29 50 27 52 -2 1 -34 -1 -72 -6 -141 -17 -264 19 -347 101 -65 65 -92
139 -92 255 -1 140 44 265 145 399 86 114 260 236 397 277 l44 13 -87 17
c-314 62 -566 350 -566 644 0 210 113 367 367 510 2 1 -19 24 -46 52 -58 60
-113 167 -142 278 -29 106 -32 335 -6 439 37 147 111 258 208 311 85 46 233
46 352 -1 18 -6 18 -5 -1 32 -99 195 -69 459 78 683 226 344 629 493 994 366
39 -14 71 -23 72 -22 1 1 9 36 18 78 23 103 72 202 135 271 167 182 469 179
777 -8 40 -24 74 -44 76 -44 2 0 3 51 3 113 1 129 24 221 80 322 176 314 587
474 937 365 181 -56 326 -203 391 -397 l24 -72 12 86 c14 102 43 178 99 259
115 170 318 287 547 316 117 15 246 -5 344 -53 128 -63 237 -201 274 -348 l14
-54 11 57 c31 156 192 336 389 435 138 69 337 91 467 51z"/>
<path d="M7611 2285 c-95 -21 -157 -43 -251 -90 -423 -212 -595 -666 -401
-1060 131 -265 375 -432 715 -491 117 -21 423 -14 536 11 256 57 474 168 615
310 179 182 213 443 90 702 -44 94 -82 149 -163 235 -172 182 -467 336 -736
383 -109 19 -317 19 -405 0z m479 -140 c245 -23 509 -181 664 -398 74 -104 93
-179 75 -297 -41 -274 -263 -544 -530 -644 -158 -59 -383 -76 -559 -43 -322
62 -618 251 -724 463 -136 272 56 609 462 809 138 67 256 102 397 114 78 7
104 7 215 -4z"/>
<path d="M9374 1040 c-80 -11 -205 -54 -274 -93 -85 -48 -194 -162 -232 -243
-31 -65 -33 -75 -33 -179 1 -128 21 -192 85 -274 118 -149 399 -251 655 -238
134 8 205 26 310 80 199 103 309 300 276 493 -28 161 -129 291 -284 368 -150
74 -348 108 -503 86z m358 -111 c123 -26 234 -114 285 -225 22 -48 25 -66 21
-128 -6 -96 -47 -172 -138 -261 -114 -110 -260 -159 -465 -158 -231 1 -396 76
-461 208 -22 47 -26 65 -22 117 6 91 38 150 132 243 106 106 237 173 397 204
65 13 190 13 251 0z"/>
</g>
</svg>
