<?xml version="1.0" standalone="no"?>
<!DOCTYPE svg PUBLIC "-//W3C//DTD SVG 20010904//EN"
 "http://www.w3.org/TR/2001/REC-SVG-20010904/DTD/svg10.dtd">
<svg version="1.0" xmlns="http://www.w3.org/2000/svg"
 width="1920.000000pt" height="960.000000pt" viewBox="0 0 1920.000000 960.000000"
 preserveAspectRatio="xMidYMid meet">
<metadata>
Created by potrace 1.16, written by Peter Selinger 2001-2019
</metadata>
<g transform="translate(0.000000,960.000000) scale(0.100000,-0.100000)"
fill="#000000" stroke="none">
<path d="M10581 7145 c-311 -70 -557 -261 -682 -530 l-31 -65 -45 63 c-172
235 -475 418 -783 473 -111 20 -322 19 -426 -1 -391 -74 -717 -357 -875 -757
-49 -124 -70 -238 -76 -398 -5 -138 -3 -170 21 -297 35 -191 91 -356 185 -548
280 -570 802 -1082 1771 -1737 96 -65 176 -123 178 -127 4 -11 -270 -118 -446
-175 -415 -133 -789 -195 -1232 -203 -511 -10 -808 32 -1840 261 -770 171
-1106 219 -1530 219 -255 0 -414 -15 -625 -58 -264 -53 -476 -131 -1015 -370
-416 -184 -574 -248 -745 -300 -252 -76 -453 -108 -680 -108 -224 1 -411 40
-591 123 -98 45 -114 48 -114 20 0 -38 224 -128 416 -167 139 -28 488 -25 649
5 321 61 536 136 1059 371 563 253 769 328 1063 385 206 40 331 50 593 50 437
-1 733 -45 1650 -248 598 -132 836 -175 1205 -218 168 -20 693 -17 877 5 450
54 883 167 1276 336 l92 40 128 -76 c670 -397 1292 -584 1866 -559 333 14 572
68 1181 266 615 201 856 250 1217 250 371 0 629 -42 1379 -225 212 -52 453
-108 535 -124 824 -165 1457 -100 1918 199 66 42 96 68 96 81 0 30 -24 23
-115 -37 -200 -130 -437 -216 -725 -261 -91 -14 -171 -18 -380 -17 -404 1
-604 32 -1328 208 -772 188 -974 221 -1372 221 -404 0 -590 -38 -1272 -259
-486 -158 -695 -211 -953 -241 -532 -62 -1103 60 -1705 366 -138 70 -277 147
-363 201 l-48 31 164 87 c263 141 477 281 697 456 170 135 497 462 614 614
383 495 574 1007 553 1485 -28 637 -394 1131 -947 1276 -110 28 -342 36 -439
14z m384 -52 c213 -40 416 -155 586 -329 173 -178 280 -388 341 -668 19 -86
22 -131 22 -311 0 -190 -3 -222 -27 -337 -173 -818 -865 -1615 -1841 -2124
-78 -40 -149 -74 -158 -74 -24 0 -400 255 -668 453 -482 357 -867 725 -1098
1051 -335 470 -480 991 -388 1388 97 418 407 762 787 872 326 94 685 32 994
-173 96 -63 240 -210 300 -304 27 -43 55 -76 62 -75 8 2 29 40 47 85 46 115
90 184 175 275 222 238 533 335 866 271z"/>
</g>
</svg>
